<svg width="17" height="17" viewBox="0 0 17 17" fill="none" xmlns="http://www.w3.org/2000/svg">
<g clip-path="url(#clip0_1_383)">
<path d="M15.1662 12.407C15.9301 11.6542 16.3884 10.7098 16.3884 9.67923C16.3884 7.457 14.2634 5.62089 11.494 5.29312C10.619 3.69312 8.56343 2.56812 6.16621 2.56812C2.97454 2.56812 0.388432 4.557 0.388432 7.01256C0.388432 8.04034 0.846765 8.98478 1.61065 9.74034C1.18565 10.5931 0.574543 11.2542 0.563432 11.2653C0.388432 11.4514 0.338432 11.7237 0.441209 11.9598C0.541209 12.1959 0.774543 12.3487 1.0301 12.3487C2.51621 12.3487 3.71621 11.7876 4.50788 11.2709C4.76343 11.3292 5.02732 11.3737 5.29676 11.407C6.16899 13.0014 8.21621 14.1237 10.6107 14.1237C11.1884 14.1237 11.744 14.057 12.2718 13.9348C13.0634 14.4487 14.2607 15.0126 15.7495 15.0126C16.0051 15.0126 16.2357 14.8598 16.3384 14.6237C16.4384 14.3876 16.3912 14.1153 16.2162 13.9292C16.2051 13.9209 15.5912 13.2598 15.1662 12.407ZM4.2551 9.84312L3.7801 10.1514C3.38843 10.4042 2.98843 10.6042 2.58288 10.7459C2.65788 10.6153 2.73288 10.4764 2.8051 10.3348L3.23565 9.47089L2.54676 8.79034C2.17176 8.41812 1.72177 7.80978 1.72177 7.01256C1.72177 5.32645 3.75788 3.90145 6.16621 3.90145C8.57454 3.90145 10.6107 5.32645 10.6107 7.01256C10.6107 8.69867 8.57454 10.1237 6.16621 10.1237C5.70788 10.1237 5.24954 10.0709 4.8051 9.96812L4.2551 9.84312ZM14.2301 11.457L13.544 12.1348L13.9745 12.9987C14.0468 13.1403 14.1218 13.2792 14.1968 13.4098C13.7912 13.2681 13.3912 13.0681 12.9995 12.8153L12.5245 12.507L11.9718 12.6348C11.5273 12.7376 11.069 12.7903 10.6107 12.7903C9.11065 12.7903 7.77176 12.232 6.96343 11.4098C9.77732 11.1098 11.944 9.25978 11.944 7.01256C11.944 6.91812 11.9329 6.82645 11.9245 6.73478C13.7134 7.13756 15.0551 8.31256 15.0551 9.67923C15.0551 10.4764 14.6051 11.0848 14.2301 11.457Z" fill="white"/>
</g>
<defs>
<clipPath id="clip0_1_383">
<rect width="16" height="16" fill="white" transform="translate(0.388428 0.790283)"/>
</clipPath>
</defs>
</svg>
