<svg width="18" height="18" viewBox="0 0 18 18" fill="none" xmlns="http://www.w3.org/2000/svg">
<g clip-path="url(#clip0_1_388)">
<path d="M8.77905 0.743408C4.23022 0.743408 0.544678 4.42896 0.544678 8.97778C0.544678 13.5266 4.23022 17.2122 8.77905 17.2122C13.3279 17.2122 17.0134 13.5266 17.0134 8.97778C17.0134 4.42896 13.3279 0.743408 8.77905 0.743408ZM8.77905 15.6184C5.11011 15.6184 2.13843 12.6467 2.13843 8.97778C2.13843 5.30884 5.11011 2.33716 8.77905 2.33716C12.448 2.33716 15.4197 5.30884 15.4197 8.97778C15.4197 12.6467 12.448 15.6184 8.77905 15.6184ZM10.831 12.152L8.01206 10.1034C7.90913 10.027 7.84937 9.90747 7.84937 9.7813V4.32935C7.84937 4.11021 8.02866 3.93091 8.2478 3.93091H9.3103C9.52944 3.93091 9.70874 4.11021 9.70874 4.32935V9.03423L11.9267 10.6479C12.106 10.7774 12.1425 11.0264 12.013 11.2057L11.3888 12.0657C11.2593 12.2417 11.0103 12.2815 10.831 12.152Z" fill="white"/>
</g>
<defs>
<clipPath id="clip0_1_388">
<rect width="17" height="17" fill="white" transform="translate(0.279053 0.477783)"/>
</clipPath>
</defs>
</svg>
