<svg width="18" height="18" viewBox="0 0 18 18" fill="none" xmlns="http://www.w3.org/2000/svg">
<g clip-path="url(#clip0_1_395)">
<path d="M16.794 12.4906L13.0752 10.8969C12.9163 10.8292 12.7398 10.8149 12.5721 10.8562C12.4044 10.8975 12.2547 10.9922 12.1455 11.126L10.4986 13.1381C7.91403 11.9195 5.834 9.83943 4.61538 7.25482L6.62749 5.60794C6.76152 5.49893 6.85639 5.34921 6.89773 5.18146C6.93907 5.01371 6.92463 4.83706 6.85659 4.67825L5.26284 0.959504C5.18817 0.788311 5.05611 0.648538 4.88942 0.564286C4.72274 0.480035 4.53188 0.456585 4.34976 0.49798L0.896631 1.29486C0.721043 1.3354 0.564382 1.43427 0.452219 1.57532C0.340055 1.71637 0.279012 1.89127 0.279053 2.07148C0.279053 10.5881 7.18198 17.4777 15.6853 17.4777C15.8656 17.4778 16.0405 17.4168 16.1817 17.3047C16.3228 17.1925 16.4217 17.0358 16.4623 16.8601L17.2591 13.407C17.3003 13.224 17.2763 13.0324 17.1914 12.8651C17.1065 12.6979 16.966 12.5654 16.794 12.4906Z" fill="white"/>
</g>
<defs>
<clipPath id="clip0_1_395">
<rect width="17" height="17" fill="white" transform="translate(0.279053 0.477783)"/>
</clipPath>
</defs>
</svg>
