<svg width="18" height="18" viewBox="0 0 18 18" fill="none" xmlns="http://www.w3.org/2000/svg">
<g clip-path="url(#clip0_1_402)">
<path d="M13.9886 3.70181C12.5974 2.30728 10.7447 1.54028 8.77573 1.54028C4.71167 1.54028 1.40464 4.84731 1.40464 8.91138C1.40464 10.2096 1.74331 11.478 2.38745 12.5969L1.34155 16.4153L5.24956 15.3893C6.32534 15.977 7.53726 16.2858 8.77241 16.2858H8.77573C12.8365 16.2858 16.2166 12.9788 16.2166 8.9147C16.2166 6.94575 15.3798 5.09634 13.9886 3.70181ZM8.77573 15.044C7.67339 15.044 6.59429 14.7485 5.65464 14.1907L5.43218 14.0579L3.1146 14.6655L3.73218 12.4043L3.58608 12.1719C2.97183 11.1958 2.64976 10.0702 2.64976 8.91138C2.64976 5.53462 5.39897 2.7854 8.77905 2.7854C10.416 2.7854 11.9533 3.4229 13.1087 4.58169C14.2642 5.74048 14.9748 7.27778 14.9714 8.9147C14.9714 12.2948 12.1525 15.044 8.77573 15.044ZM12.1359 10.4553C11.9533 10.3624 11.0468 9.91743 10.8775 9.85767C10.7082 9.79458 10.5853 9.7647 10.4625 9.95063C10.3396 10.1366 9.98765 10.5483 9.87808 10.6745C9.77183 10.7973 9.66226 10.8139 9.47964 10.7209C8.39722 10.1797 7.68667 9.75474 6.9728 8.52954C6.78355 8.20415 7.16206 8.22739 7.51401 7.52349C7.57378 7.40063 7.5439 7.29438 7.49741 7.20142C7.45093 7.10845 7.08237 6.202 6.92964 5.83345C6.78022 5.47485 6.62749 5.52466 6.5146 5.51802C6.40835 5.51138 6.2855 5.51138 6.16265 5.51138C6.03979 5.51138 5.84058 5.55786 5.67124 5.74048C5.5019 5.92642 5.0271 6.37134 5.0271 7.27778C5.0271 8.18423 5.68784 9.06079 5.77749 9.18364C5.87046 9.30649 7.07573 11.1659 8.92515 11.9661C10.0939 12.4708 10.5521 12.5139 11.1365 12.4276C11.4917 12.3745 12.2255 11.9827 12.3783 11.551C12.531 11.1194 12.531 10.7508 12.4845 10.6745C12.4414 10.5915 12.3185 10.545 12.1359 10.4553Z" fill="white"/>
</g>
<defs>
<clipPath id="clip0_1_402">
<rect width="17" height="17" fill="white" transform="translate(0.279053 0.477783)"/>
</clipPath>
</defs>
</svg>
