<svg width="17" height="17" viewBox="0 0 17 17" fill="none" xmlns="http://www.w3.org/2000/svg">
<g clip-path="url(#clip0_1_412)">
<path d="M11.9647 4.44216L7.45405 6.50372C7.2359 6.60344 7.06096 6.77838 6.96124 6.99653L4.89968 11.5072C4.66187 12.0275 5.1978 12.5637 5.71843 12.3259L10.2291 10.2643C10.4472 10.1646 10.6221 9.98969 10.7219 9.77153L12.7834 5.26091C13.0212 4.74028 12.4853 4.20435 11.9647 4.44216ZM9.54718 9.08966C9.15749 9.47935 8.52562 9.47935 8.13593 9.08966C7.74624 8.69997 7.74624 8.0681 8.13593 7.67841C8.52562 7.28872 9.15749 7.28872 9.54718 7.67841C9.93686 8.0681 9.93686 8.69997 9.54718 9.08966ZM8.84155 0.634033C4.56124 0.634033 1.09155 4.10372 1.09155 8.38403C1.09155 12.6643 4.56124 16.134 8.84155 16.134C13.1219 16.134 16.5916 12.6643 16.5916 8.38403C16.5916 4.10372 13.1219 0.634033 8.84155 0.634033ZM8.84155 14.634C5.3953 14.634 2.59155 11.8303 2.59155 8.38403C2.59155 4.93778 5.3953 2.13403 8.84155 2.13403C12.2878 2.13403 15.0916 4.93778 15.0916 8.38403C15.0916 11.8303 12.2878 14.634 8.84155 14.634Z" fill="white"/>
</g>
<defs>
<clipPath id="clip0_1_412">
<rect width="16" height="16" fill="white" transform="translate(0.841553 0.384033)"/>
</clipPath>
</defs>
</svg>
