<svg width="18" height="17" viewBox="0 0 18 17" fill="none" xmlns="http://www.w3.org/2000/svg">
<path d="M9.00001 14.275L4.85001 16.775C4.66668 16.8916 4.47501 16.9416 4.27501 16.9249C4.07501 16.9083 3.90001 16.8416 3.75001 16.725C3.60001 16.6083 3.48334 16.4626 3.40001 16.288C3.31668 16.1126 3.30001 15.9166 3.35001 15.7L4.45001 10.975L0.775009 7.79995C0.608343 7.64995 0.504343 7.47895 0.463009 7.28695C0.421009 7.09562 0.433343 6.90829 0.500009 6.72495C0.566676 6.54162 0.666676 6.39162 0.800009 6.27495C0.933343 6.15828 1.11668 6.08328 1.35001 6.04995L6.20001 5.62495L8.07501 1.17495C8.15834 0.974952 8.28768 0.824951 8.46301 0.724951C8.63768 0.624951 8.81668 0.574951 9.00001 0.574951C9.18334 0.574951 9.36268 0.624951 9.53801 0.724951C9.71268 0.824951 9.84168 0.974952 9.92501 1.17495L11.8 5.62495L16.65 6.04995C16.8833 6.08328 17.0667 6.15828 17.2 6.27495C17.3333 6.39162 17.4333 6.54162 17.5 6.72495C17.5667 6.90829 17.5793 7.09562 17.538 7.28695C17.496 7.47895 17.3917 7.64995 17.225 7.79995L13.55 10.975L14.65 15.7C14.7 15.9166 14.6833 16.1126 14.6 16.288C14.5167 16.4626 14.4 16.6083 14.25 16.725C14.1 16.8416 13.925 16.9083 13.725 16.9249C13.525 16.9416 13.3333 16.8916 13.15 16.775L9.00001 14.275Z" fill="#FFD233"/>
</svg>
