<svg width="15" height="15" viewBox="0 0 15 15" fill="none" xmlns="http://www.w3.org/2000/svg">
<g clip-path="url(#clip0_1_728)">
<path d="M12.7805 2.51343H1.40552C0.680635 2.51343 0.0930176 3.10104 0.0930176 3.82593V11.7009C0.0930176 12.4258 0.680635 13.0134 1.40552 13.0134H12.7805C13.5054 13.0134 14.093 12.4258 14.093 11.7009V3.82593C14.093 3.10104 13.5054 2.51343 12.7805 2.51343ZM12.7805 3.82593V4.94169C12.1674 5.44096 11.19 6.2173 9.1004 7.85353C8.63991 8.21575 7.72772 9.08596 7.09302 9.07582C6.45842 9.08607 5.54594 8.21561 5.08563 7.85353C2.99638 6.21755 2.0187 5.44104 1.40552 4.94169V3.82593H12.7805ZM1.40552 11.7009V6.62587C2.03207 7.12492 2.92061 7.82522 4.27492 8.88573C4.87257 9.35617 5.91921 10.3947 7.09302 10.3884C8.26106 10.3947 9.29444 9.37124 9.91087 8.88594C11.2652 7.82547 12.1539 7.12498 12.7805 6.6259V11.7009H1.40552Z" fill="#D1D1D1"/>
</g>
<defs>
<clipPath id="clip0_1_728">
<rect width="14" height="14" fill="white" transform="translate(0.0930176 0.763428)"/>
</clipPath>
</defs>
</svg>
