<svg width="15" height="15" viewBox="0 0 15 15" fill="none" xmlns="http://www.w3.org/2000/svg">
<g clip-path="url(#clip0_1_718)">
<path d="M13.6935 10.6564L10.631 9.34389C10.5002 9.28814 10.3548 9.27639 10.2167 9.31042C10.0786 9.34444 9.95534 9.42241 9.8654 9.53257L8.50915 11.1896C6.38064 10.186 4.66768 8.47306 3.66411 6.34456L5.32114 4.98831C5.43152 4.89853 5.50965 4.77524 5.54369 4.63709C5.57774 4.49894 5.56584 4.35347 5.50981 4.22268L4.19731 1.16018C4.13582 1.0192 4.02706 0.904093 3.88979 0.834709C3.75252 0.765325 3.59535 0.746013 3.44536 0.780104L0.601611 1.43635C0.457009 1.46975 0.327995 1.55116 0.235625 1.66732C0.143255 1.78348 0.0929843 1.92752 0.0930176 2.07592C0.0930176 9.0896 5.77778 14.7634 12.7805 14.7634C12.929 14.7635 13.0731 14.7133 13.1893 14.6209C13.3055 14.5285 13.387 14.3995 13.4204 14.2548L14.0766 11.4111C14.1105 11.2604 14.0908 11.1026 14.0208 10.9648C13.9509 10.8271 13.8352 10.718 13.6935 10.6564Z" fill="#D1D1D1"/>
</g>
<defs>
<clipPath id="clip0_1_718">
<rect width="14" height="14" fill="white" transform="translate(0.0930176 0.763428)"/>
</clipPath>
</defs>
</svg>
